<?xml version="1.0" standalone="no"?><!DOCTYPE svg PUBLIC "-//W3C//DTD SVG 1.1//EN" "http://www.w3.org/Graphics/SVG/1.1/DTD/svg11.dtd"><svg t="1498455060663" class="icon" style="" viewBox="0 0 1024 1024" version="1.1" xmlns="http://www.w3.org/2000/svg" p-id="5615" xmlns:xlink="http://www.w3.org/1999/xlink" width="32" height="32"><defs><style type="text/css"></style></defs><path d="M999.1936 474.4448a23.0912 23.0912 0 0 0-6.272 0.9472c-14.6688-129.4848-152.3712-166.0928-237.9776-166.9632-1.0752-0.1536-2.1248-0.3328-3.2256-0.3328h-0.0256l-474.0864 0.4608c-2.6112-0.0256-4.9664-0.2304-7.6544-0.2304-85.2224 0-226.048 35.9168-241.1776 166.5792a24.2432 24.2432 0 0 0-4.5056-0.4608 24.5248 24.5248 0 0 0-24.2688 24.7296c0 13.6448 10.88 24.7296 24.2944 24.7296H25.344c1.0752 0 2.0736-0.1792 3.0976-0.3328 11.3664 132.5568 112.4096 192.3328 212.6592 192.3328 108.416 0 248.2944-122.5216 248.2944-252.6976 0-2.1248-0.1536-4.2752-0.2304-6.4 2.2784-5.8624 10.0352-22.9376 21.9136-22.9376 11.3664 0 18.8672 15.4368 21.5552 21.9904-0.1024 2.4576-0.256 4.9152-0.256 7.3216 0 130.1504 139.8784 252.6976 248.2944 252.6976 100.3776 0 201.4976-59.9296 212.6592-192.8448 1.8944 0.4864 3.84 0.8192 5.888 0.8192h1.0496c13.3888 0 23.7568-11.0848 23.7568-24.7296a24.9856 24.9856 0 0 0-24.832-24.6784z m-834.4064 2.0736c-23.9616 9.9328-55.04 7.296-70.4512-29.8752-15.7184-37.9392 27.4432-60.3136 38.6816-65.408l0.3584-0.1024 6.2464-2.5856c47.2832-18.0224 56.6528 4.608 59.8016 12.1856 12.544 30.2336-9.5744 75.392-34.6368 85.7856z m497.4592 0c-23.9872 9.9328-55.04 7.296-70.4512-29.8752-15.7184-37.9392 27.4432-60.3136 38.6816-65.408a1.4592 1.4592 0 0 0 0.3584-0.1024l6.2464-2.5856c47.2832-18.0224 56.6528 4.608 59.8016 12.1856 12.5184 30.2336-9.5744 75.392-34.6368 85.7856z m-151.1936-92.0576c-14.2848 0-26.1376 4.8128-35.9168 11.8272a124.7232 124.7232 0 0 0-29.2352-38.4512l130.0992-0.128a125.2096 125.2096 0 0 0-29.3376 38.4 60.3392 60.3392 0 0 0-35.6096-11.648z" fill="#2c2c2c" p-id="5616"></path></svg>