<?xml version="1.0" standalone="no"?><!DOCTYPE svg PUBLIC "-//W3C//DTD SVG 1.1//EN" "http://www.w3.org/Graphics/SVG/1.1/DTD/svg11.dtd"><svg t="1498556211327" class="icon" style="" viewBox="0 0 1024 1024" version="1.1" xmlns="http://www.w3.org/2000/svg" p-id="8275" xmlns:xlink="http://www.w3.org/1999/xlink" width="64" height="64"><defs><style type="text/css"></style></defs><path d="M512.986979 761.601778c-66.934458 0-129.860626-26.065655-177.189561-73.395614-47.327912-47.327912-73.391521-110.25408-73.391521-177.184445 0-66.931389 26.064632-129.857557 73.391521-177.186492 47.328935-47.329958 110.256126-73.395614 177.189561-73.395614 66.926272 0 129.851417 26.065655 177.181375 73.395614 47.332005 47.330982 73.398684 110.25715 73.398684 177.186492S737.500359 640.877229 690.168354 688.207188C642.837372 735.536123 579.913251 761.601778 512.986979 761.601778zM512.986979 301.371862c-115.600855 0-209.648834 94.049003-209.648834 209.649857 0 115.600855 94.047979 209.647811 209.648834 209.647811s209.647811-94.046956 209.647811-209.647811C722.63479 395.420865 628.58681 301.371862 512.986979 301.371862z" p-id="8276" fill="#595959"></path><path d="M512.986979 192.962803c-11.30344 0-20.466124-9.162684-20.466124-20.466124L492.520855 92.200912c0-11.30344 9.162684-20.466124 20.466124-20.466124s20.466124 9.162684 20.466124 20.466124l0 80.294744C533.453103 183.80012 524.290419 192.962803 512.986979 192.962803z" p-id="8277" fill="#595959"></path><path d="M512.986979 950.288185c-11.30344 0-20.466124-9.162684-20.466124-20.466124l0-80.284511c0-11.30344 9.162684-20.466124 20.466124-20.466124s20.466124 9.162684 20.466124 20.466124l0 80.284511C533.453103 941.125501 524.290419 950.288185 512.986979 950.288185z" p-id="8278" fill="#595959"></path><path d="M273.609053 292.120151c-5.238304 0-10.475586-1.998517-14.471596-5.994528L202.367499 229.356688c-7.993045-7.992021-7.993045-20.951171 0-28.943193 7.992021-7.993045 20.951171-7.993045 28.943193 0l56.770981 56.769958c7.993045 7.992021 7.993045 20.951171 0 28.943193C284.085662 290.121634 278.847357 292.120151 273.609053 292.120151z" p-id="8279" fill="#595959"></path><path d="M809.114396 827.625494c-5.237281 0-10.475586-1.997494-14.47262-5.993504l-56.770981-56.770981c-7.992021-7.993045-7.992021-20.952194 0-28.944216 7.993045-7.993045 20.952194-7.993045 28.944216 0l56.770981 56.770981c7.992021 7.993045 7.992021 20.952194 0 28.944216C819.589982 825.626977 814.351678 827.625494 809.114396 827.625494z" p-id="8280" fill="#595959"></path><path d="M94.159008 531.497053c-11.30344 0.001023-20.467147-9.160637-20.468171-20.464077-0.001023-11.30344 9.160637-20.467147 20.464077-20.468171l80.286558-0.00921c11.30344-0.001023 20.467147 9.160637 20.468171 20.464077 0.001023 11.30344-9.160637 20.467147-20.464077 20.468171L94.159008 531.497053z" p-id="8281" fill="#595959"></path><path d="M931.777087 531.487843l-80.284511 0c-11.30344 0-20.466124-9.162684-20.466124-20.466124s9.162684-20.466124 20.466124-20.466124l80.284511 0c11.30344 0 20.466124 9.162684 20.466124 20.466124S943.080527 531.487843 931.777087 531.487843z" p-id="8282" fill="#595959"></path><path d="M216.839095 827.634704c-5.238304 0-10.475586-1.997494-14.471596-5.993504-7.993045-7.993045-7.993045-20.952194 0-28.944216l56.770981-56.770981c7.993045-7.993045 20.951171-7.993045 28.943193 0s7.993045 20.952194 0 28.944216l-56.770981 56.770981C227.314681 825.63721 222.0774 827.634704 216.839095 827.634704z" p-id="8283" fill="#595959"></path><path d="M752.343415 292.120151c-5.238304 0-10.474562-1.997494-14.47262-5.994528-7.993045-7.993045-7.992021-20.951171 0.001023-28.943193l56.770981-56.769958c7.993045-7.992021 20.951171-7.993045 28.943193 0s7.992021 20.951171-0.001023 28.943193l-56.770981 56.769958C762.819001 290.121634 757.580696 292.120151 752.343415 292.120151z" p-id="8284" fill="#595959"></path></svg>