<?xml version="1.0" standalone="no"?><!DOCTYPE svg PUBLIC "-//W3C//DTD SVG 1.1//EN" "http://www.w3.org/Graphics/SVG/1.1/DTD/svg11.dtd"><svg t="1498455008666" class="icon" style="" viewBox="0 0 1024 1024" version="1.1" xmlns="http://www.w3.org/2000/svg" p-id="4798" xmlns:xlink="http://www.w3.org/1999/xlink" width="16" height="16"><defs><style type="text/css"></style></defs><path d="M109.738667 198.528c1.834667 0 3.754667 0.341333 5.802667 1.024 47.701333 16 95.317333 129.536 115.029333 181.930667 98.432-41.088 243.968-48.512 279.978667-49.706667l0.042667-0.256c0 0 1.792 0.042667 4.394667 0.128 2.688-0.085333 4.437333-0.128 4.437333-0.128l0 0.256c37.76 1.28 189.653333 9.045333 286.848 53.077333 16.469333-47.061333 63.018667-168.661333 109.610667-185.045333 1.877333-0.682667 3.712-0.981333 5.376-0.981333 37.034667 0 28.672 153.941333-18.005333 292.864 33.536 114.773333-63.36 237.269333-63.36 237.269333s-63.914667 107.178667-294.016 128.298667l-61.568 0c-231.68-20.949333-295.978667-128.298667-295.978667-128.298667s-99.370667-125.013333-62.634667-240.768C78.634667 348.757333 70.869333 198.528 109.738667 198.528M109.738667 123.861333c-29.184 0-56.064 14.122667-73.728 38.741333-55.850667 77.866667-7.125333 263.594667 12.117333 327.68-27.690667 133.632 60.8 257.792 79.573333 282.282667 19.072 27.989333 108.202667 137.216 349.909333 159.104 2.261333 0.213333 4.48 0.298667 6.741333 0.298667l61.568 0c2.304 0 4.522667-0.128 6.826667-0.341333 240.341333-22.058667 329.002667-131.242667 347.946667-159.146667 18.432-24.106667 104.917333-146.005333 79.914667-278.101333 18.858667-63.872 68.522667-255.061333 13.098667-332.16-17.322667-24.106667-43.733333-37.973333-72.405333-37.973333-10.154667 0-20.309333 1.792-30.122667 5.248-20.266667 7.125333-69.674667 24.448-128.512 161.322667-91.648-25.045333-192.512-31.616-234.112-33.28-2.986667-0.384-6.016-0.554667-9.088-0.554667-0.597333 0-1.152 0-1.792 0L514.986667 256.981333l-2.645333-0.085333c-0.597333 0-1.152 0-1.749333 0-3.072 0-6.101333 0.170667-9.088 0.554667-40.234667 1.621333-137.770667 7.850667-228.394667 31.573333-62.122667-136.192-113.066667-153.258667-133.888-160.213333C129.578667 125.525333 119.637333 123.861333 109.738667 123.861333L109.738667 123.861333z" p-id="4799" fill="#2c2c2c"></path><path d="M520.106667 333.44l0 0.256c46.592 1.578667 278.229333 13.354667 348.245333 96.682667 106.496 126.464-29.738667 297.984-29.738667 297.984s-63.530667 106.581333-292.309333 127.573333l-61.098667 0c-230.229333-20.906667-294.144-127.573333-294.144-127.573333s-137.002667-171.52-29.994667-297.984c70.485333-83.328 303.445333-95.104 350.165333-96.682667l0-0.256c0 0 1.749333 0.042667 4.394667 0.128C518.357333 333.482667 520.106667 333.44 520.106667 333.44M511.274667 258.773333c-2.944 0-5.888 0.170667-8.746667 0.512C238.208 269.056 139.52 340.309333 104.149333 382.122667c-61.013333 72.106667-74.709333 167.893333-38.485333 269.653333 21.845333 61.397333 54.997333 107.349333 64.768 120.064 18.944 27.818667 107.648 136.533333 348.117333 158.421333 2.261333 0.213333 4.48 0.298667 6.741333 0.298667l61.098667 0c2.304 0 4.522667-0.128 6.826667-0.341333 239.232-21.973333 327.509333-130.730667 346.282667-158.549333 9.728-12.757333 42.666667-58.666667 64.384-120.021333 35.968-101.674667 22.314667-197.333333-38.314667-269.397333-35.157333-41.813333-133.376-113.109333-396.672-122.965333-2.858667-0.341333-5.802667-0.512-8.746667-0.512-0.597333 0-1.152 0-1.792 0l-2.645333 0.085333-2.602667-0.085333C512.469333 258.773333 511.914667 258.773333 511.274667 258.773333L511.274667 258.773333z" p-id="4800" fill="#2c2c2c"></path><path d="M624.725333 549.034667l-73.344 0 0-73.344c0-20.266667-16.469333-36.693333-36.693333-36.693333-20.266667 0-36.693333 16.426667-36.693333 36.693333l0 73.344L404.608 549.034667c-20.266667 0-36.693333 16.426667-36.693333 36.693333 0 20.224 16.426667 36.650667 36.693333 36.650667l73.344 0 0 73.386667c0 20.224 16.426667 36.693333 36.693333 36.693333 20.266667 0 36.693333-16.512 36.693333-36.693333l0-73.386667 73.344 0c20.266667 0 36.693333-16.469333 36.693333-36.650667C661.418667 565.461333 644.949333 549.034667 624.725333 549.034667z" p-id="4801" fill="#2c2c2c"></path></svg>